<?xml version="1.0" encoding="UTF-8" standalone="no"?>
<!DOCTYPE svg PUBLIC "-//W3C//DTD SVG 1.1//EN" "http://www.w3.org/Graphics/SVG/1.1/DTD/svg11.dtd">
<svg width="100%" height="100%" viewBox="0 0 1024 1024" version="1.1" xmlns="http://www.w3.org/2000/svg" xmlns:xlink="http://www.w3.org/1999/xlink" xml:space="preserve" xmlns:serif="http://www.serif.com/" style="fill-rule:evenodd;clip-rule:evenodd;stroke-linejoin:round;stroke-miterlimit:2;">
    <rect id="Artboard1" x="0" y="0" width="1024" height="1024" style="fill:none;"/>
    <g id="Artboard11" serif:id="Artboard1">
        <g transform="matrix(1,0,0,1,-325.534,409.085)">
            <g transform="matrix(840,0,0,840,333.295,328.972)">
                <path d="M0.386,-0.553C0.421,-0.553 0.454,-0.547 0.487,-0.536C0.52,-0.525 0.549,-0.509 0.575,-0.488C0.6,-0.466 0.621,-0.441 0.636,-0.411C0.651,-0.38 0.659,-0.346 0.659,-0.309L0.651,-0.261L0.651,-0.195C0.651,-0.19 0.649,-0.184 0.645,-0.176C0.641,-0.168 0.639,-0.161 0.639,-0.156C0.635,-0.147 0.631,-0.139 0.628,-0.13C0.625,-0.123 0.621,-0.115 0.617,-0.107C0.613,-0.098 0.608,-0.09 0.603,-0.083C0.6,-0.078 0.596,-0.072 0.59,-0.065C0.583,-0.058 0.576,-0.052 0.568,-0.046C0.559,-0.04 0.551,-0.035 0.542,-0.031C0.533,-0.027 0.525,-0.025 0.517,-0.025L0.498,-0.025C0.491,-0.025 0.483,-0.024 0.476,-0.022C0.469,-0.02 0.462,-0.018 0.455,-0.016C0.448,-0.013 0.441,-0.011 0.436,-0.009C0.431,-0.007 0.427,-0.006 0.425,-0.006L0.398,-0.006C0.387,-0.006 0.377,-0.005 0.369,-0.002C0.36,0.002 0.353,0.003 0.347,0.003L0.208,0.003C0.204,0.005 0.2,0.007 0.197,0.009C0.19,0.012 0.184,0.014 0.178,0.014L0.15,0.003L0.122,0.003L0.095,0.014C0.09,0.014 0.084,0.012 0.077,0.008C0.069,0.003 0.063,-0.001 0.058,-0.006C0.055,-0.006 0.051,-0.006 0.046,-0.007C0.041,-0.007 0.035,-0.008 0.031,-0.01C0.025,-0.011 0.021,-0.014 0.017,-0.018C0.013,-0.021 0.011,-0.026 0.011,-0.033C0.011,-0.038 0.013,-0.043 0.018,-0.048C0.023,-0.053 0.028,-0.057 0.034,-0.06C0.041,-0.064 0.049,-0.068 0.058,-0.072L0.086,-0.072L0.133,-0.083C0.138,-0.081 0.143,-0.079 0.148,-0.077C0.157,-0.074 0.164,-0.072 0.17,-0.072C0.177,-0.072 0.182,-0.074 0.186,-0.079C0.189,-0.083 0.192,-0.088 0.194,-0.094C0.195,-0.1 0.196,-0.106 0.197,-0.113C0.197,-0.119 0.197,-0.124 0.197,-0.128L0.197,-0.189C0.197,-0.192 0.196,-0.196 0.193,-0.201C0.192,-0.204 0.19,-0.206 0.189,-0.208L0.189,-0.27C0.189,-0.275 0.19,-0.282 0.193,-0.29C0.196,-0.298 0.197,-0.307 0.197,-0.317L0.197,-0.403C0.197,-0.421 0.194,-0.436 0.188,-0.449C0.182,-0.461 0.169,-0.467 0.15,-0.467C0.146,-0.467 0.143,-0.467 0.14,-0.466C0.137,-0.464 0.135,-0.464 0.133,-0.463C0.13,-0.462 0.128,-0.461 0.125,-0.46C0.122,-0.459 0.119,-0.459 0.114,-0.459L0.086,-0.467L0.067,-0.467C0.062,-0.467 0.056,-0.469 0.05,-0.474C0.043,-0.478 0.039,-0.482 0.039,-0.486C0.039,-0.496 0.045,-0.505 0.056,-0.512C0.067,-0.519 0.079,-0.526 0.093,-0.531C0.107,-0.536 0.121,-0.539 0.134,-0.542C0.147,-0.544 0.156,-0.545 0.161,-0.545L0.178,-0.545C0.183,-0.545 0.188,-0.543 0.193,-0.54C0.198,-0.536 0.203,-0.534 0.208,-0.534C0.213,-0.535 0.218,-0.537 0.223,-0.539C0.227,-0.54 0.231,-0.542 0.236,-0.543C0.24,-0.544 0.244,-0.545 0.247,-0.545L0.303,-0.545C0.316,-0.546 0.329,-0.548 0.34,-0.549C0.349,-0.55 0.359,-0.551 0.368,-0.552C0.377,-0.553 0.383,-0.553 0.386,-0.553ZM0.339,-0.456C0.337,-0.456 0.333,-0.455 0.327,-0.452C0.321,-0.449 0.315,-0.446 0.309,-0.441C0.302,-0.436 0.297,-0.431 0.292,-0.426C0.287,-0.421 0.284,-0.416 0.284,-0.411C0.285,-0.41 0.287,-0.408 0.288,-0.406C0.291,-0.402 0.292,-0.397 0.292,-0.392L0.292,-0.139C0.295,-0.134 0.296,-0.128 0.297,-0.122C0.298,-0.116 0.299,-0.11 0.3,-0.105C0.301,-0.1 0.302,-0.095 0.305,-0.091C0.308,-0.087 0.313,-0.084 0.32,-0.083L0.331,-0.083C0.333,-0.083 0.337,-0.083 0.342,-0.084C0.347,-0.085 0.369,-0.087 0.374,-0.088C0.379,-0.089 0.383,-0.089 0.386,-0.089C0.415,-0.09 0.439,-0.096 0.459,-0.109C0.478,-0.121 0.494,-0.136 0.507,-0.155C0.52,-0.174 0.529,-0.194 0.535,-0.215C0.541,-0.236 0.544,-0.256 0.545,-0.275C0.546,-0.29 0.542,-0.307 0.535,-0.328C0.528,-0.349 0.519,-0.368 0.508,-0.386C0.497,-0.403 0.486,-0.417 0.475,-0.427C0.464,-0.436 0.455,-0.438 0.448,-0.431C0.444,-0.434 0.44,-0.436 0.437,-0.439C0.434,-0.441 0.431,-0.443 0.428,-0.445C0.424,-0.447 0.422,-0.448 0.42,-0.448L0.411,-0.448L0.339,-0.456Z" style="fill:rgb(237,237,237);fill-rule:nonzero;"/>
            </g>
            <g transform="matrix(980,0,0,980,907.855,328.972)">
                <path d="M0.189,-0.481C0.196,-0.482 0.201,-0.481 0.204,-0.478C0.206,-0.475 0.211,-0.471 0.22,-0.467C0.227,-0.463 0.234,-0.458 0.239,-0.453C0.244,-0.448 0.247,-0.441 0.247,-0.434C0.246,-0.431 0.246,-0.427 0.245,-0.423C0.244,-0.414 0.244,-0.406 0.247,-0.398C0.247,-0.392 0.246,-0.385 0.244,-0.377C0.241,-0.368 0.241,-0.361 0.242,-0.356C0.243,-0.353 0.245,-0.351 0.248,-0.348C0.25,-0.346 0.252,-0.344 0.255,-0.343C0.257,-0.341 0.259,-0.341 0.261,-0.342C0.268,-0.343 0.275,-0.35 0.283,-0.361C0.29,-0.372 0.298,-0.385 0.305,-0.399C0.312,-0.413 0.32,-0.427 0.327,-0.44C0.334,-0.453 0.341,-0.462 0.347,-0.467L0.378,-0.475C0.382,-0.476 0.387,-0.477 0.392,-0.476C0.397,-0.475 0.4,-0.475 0.403,-0.475C0.416,-0.468 0.424,-0.458 0.427,-0.445C0.43,-0.432 0.433,-0.421 0.434,-0.414C0.435,-0.405 0.432,-0.392 0.425,-0.377C0.418,-0.362 0.409,-0.349 0.398,-0.339C0.393,-0.336 0.389,-0.334 0.385,-0.333C0.381,-0.331 0.377,-0.329 0.373,-0.328C0.37,-0.328 0.367,-0.328 0.366,-0.329C0.364,-0.329 0.362,-0.33 0.359,-0.331C0.356,-0.332 0.353,-0.333 0.35,-0.334C0.347,-0.334 0.343,-0.334 0.339,-0.334C0.33,-0.334 0.322,-0.331 0.315,-0.324C0.307,-0.317 0.299,-0.31 0.292,-0.303C0.281,-0.289 0.272,-0.273 0.266,-0.256C0.259,-0.238 0.256,-0.221 0.256,-0.206C0.251,-0.201 0.246,-0.196 0.24,-0.189C0.233,-0.182 0.228,-0.173 0.225,-0.164C0.221,-0.155 0.219,-0.145 0.22,-0.135C0.22,-0.125 0.218,-0.115 0.214,-0.106C0.215,-0.098 0.215,-0.089 0.214,-0.079C0.213,-0.068 0.212,-0.057 0.211,-0.046C0.209,-0.035 0.207,-0.024 0.204,-0.014C0.201,-0.003 0.198,0.006 0.195,0.014C0.19,0.017 0.185,0.02 0.178,0.023C0.171,0.026 0.164,0.028 0.157,0.029C0.149,0.031 0.14,0.032 0.131,0.033C0.128,0.033 0.123,0.03 0.118,0.025C0.115,0.022 0.113,0.02 0.111,0.017L0.097,-0.011C0.096,-0.016 0.097,-0.024 0.099,-0.035C0.101,-0.046 0.103,-0.058 0.106,-0.07C0.109,-0.081 0.111,-0.092 0.114,-0.101C0.116,-0.11 0.117,-0.116 0.117,-0.117C0.132,-0.139 0.141,-0.162 0.146,-0.187C0.151,-0.211 0.156,-0.235 0.161,-0.259L0.153,-0.325C0.15,-0.334 0.146,-0.338 0.141,-0.338C0.136,-0.338 0.13,-0.337 0.125,-0.336C0.114,-0.334 0.107,-0.331 0.102,-0.328C0.097,-0.324 0.093,-0.32 0.09,-0.316C0.087,-0.312 0.083,-0.308 0.079,-0.305C0.075,-0.301 0.068,-0.298 0.058,-0.297C0.053,-0.297 0.049,-0.3 0.048,-0.307C0.047,-0.314 0.045,-0.32 0.044,-0.325C0.043,-0.331 0.044,-0.337 0.047,-0.343C0.05,-0.348 0.055,-0.354 0.061,-0.359C0.066,-0.364 0.073,-0.369 0.08,-0.374C0.087,-0.379 0.094,-0.384 0.1,-0.389C0.108,-0.398 0.115,-0.407 0.121,-0.418C0.127,-0.428 0.133,-0.438 0.139,-0.447C0.145,-0.456 0.152,-0.463 0.16,-0.47C0.167,-0.476 0.177,-0.48 0.189,-0.481Z" style="fill:rgb(237,237,237);fill-rule:nonzero;"/>
            </g>
        </g>
    </g>
</svg>
